# 3ds Max Wavefront OBJ Exporter v0.99 - (c)2007 guruware
# File Created: 25.10.2023 20:29:37

#
# object Cylinder001
#

v  0.0000 0.0000 -0.0000
v  0.4330 0.0000 -0.2500
v  0.5000 0.0000 -0.0000
v  0.2500 0.0000 -0.4330
v  -0.0000 0.0000 -0.5000
v  -0.2500 0.0000 -0.4330
v  -0.4330 0.0000 -0.2500
v  -0.5000 0.0000 -0.0000
v  -0.4330 0.0000 0.2500
v  -0.2500 0.0000 0.4330
v  -0.0000 0.0000 0.5000
v  0.2500 0.0000 0.4330
v  0.4330 0.0000 0.2500
v  0.4330 1.0000 -0.2500
v  0.5000 1.0000 -0.0000
v  0.2500 1.0000 -0.4330
v  -0.0000 1.0000 -0.5000
v  -0.2500 1.0000 -0.4330
v  -0.4330 1.0000 -0.2500
v  -0.5000 1.0000 -0.0000
v  -0.4330 1.0000 0.2500
v  -0.2500 1.0000 0.4330
v  -0.0000 1.0000 0.5000
v  0.2500 1.0000 0.4330
v  0.4330 1.0000 0.2500
v  0.0000 1.0000 -0.0000
# 26 vertices

vn 0.0000 -1.0000 -0.0000
vn 1.0000 0.0000 0.0000
vn 0.8660 0.0000 -0.5000
vn 0.5000 0.0000 -0.8660
vn -0.0000 0.0000 -1.0000
vn -0.5000 0.0000 -0.8660
vn -0.8660 0.0000 -0.5000
vn -1.0000 0.0000 -0.0000
vn -0.8660 0.0000 0.5000
vn -0.5000 0.0000 0.8660
vn -0.0000 0.0000 1.0000
vn 0.5000 0.0000 0.8660
vn 0.8660 0.0000 0.5000
vn 0.0000 1.0000 -0.0000
# 14 vertex normals

vt 0.5000 0.0000 0.0000
vt 0.8333 0.0000 1.0000
vt 0.7500 0.0000 1.0000
vt 0.9167 0.0000 1.0000
vt 0.0000 0.0000 1.0000
vt -0.0833 0.0000 1.0000
vt 0.0833 0.0000 1.0000
vt 0.1667 0.0000 1.0000
vt 0.2500 0.0000 1.0000
vt 0.3333 0.0000 1.0000
vt 0.4167 0.0000 1.0000
vt 0.5000 0.0000 1.0000
vt 0.5833 0.0000 1.0000
vt 0.6667 0.0000 1.0000
vt 0.8333 1.0000 1.0000
vt 0.7500 1.0000 1.0000
vt 0.9167 1.0000 1.0000
vt 0.0000 1.0000 1.0000
vt -0.0833 1.0000 1.0000
vt 0.0833 1.0000 1.0000
vt 0.1667 1.0000 1.0000
vt 0.2500 1.0000 1.0000
vt 0.3333 1.0000 1.0000
vt 0.4167 1.0000 1.0000
vt 0.5000 1.0000 1.0000
vt 0.5833 1.0000 1.0000
vt 0.6667 1.0000 1.0000
vt 0.5000 1.0000 0.0000
# 28 texture coords

o Cylinder001
g Cylinder001
s 1
f 1/1/1 2/2/1 3/3/1 
f 1/1/1 4/4/1 2/2/1 
f 1/1/1 5/5/1 4/6/1 
f 1/1/1 6/7/1 5/5/1 
f 1/1/1 7/8/1 6/7/1 
f 1/1/1 8/9/1 7/8/1 
f 1/1/1 9/10/1 8/9/1 
f 1/1/1 10/11/1 9/10/1 
f 1/1/1 11/12/1 10/11/1 
f 1/1/1 12/13/1 11/12/1 
f 1/1/1 13/14/1 12/13/1 
f 1/1/1 3/3/1 13/14/1 
s 8
f 3/3/2 14/15/3 15/16/2 
f 3/3/2 2/2/3 14/15/3 
f 2/2/3 16/17/4 14/15/3 
f 2/2/3 4/4/4 16/17/4 
f 4/6/4 17/18/5 16/19/4 
f 4/6/4 5/5/5 17/18/5 
f 5/5/5 18/20/6 17/18/5 
f 5/5/5 6/7/6 18/20/6 
f 6/7/6 19/21/7 18/20/6 
f 6/7/6 7/8/7 19/21/7 
f 7/8/7 20/22/8 19/21/7 
f 7/8/7 8/9/8 20/22/8 
f 8/9/8 21/23/9 20/22/8 
f 8/9/8 9/10/9 21/23/9 
f 9/10/9 22/24/10 21/23/9 
f 9/10/9 10/11/10 22/24/10 
f 10/11/10 23/25/11 22/24/10 
f 10/11/10 11/12/11 23/25/11 
f 11/12/11 24/26/12 23/25/11 
f 11/12/11 12/13/12 24/26/12 
f 12/13/12 25/27/13 24/26/12 
f 12/13/12 13/14/13 25/27/13 
f 13/14/13 15/16/2 25/27/13 
f 13/14/13 3/3/2 15/16/2 
s 1
f 26/28/14 15/16/14 14/15/14 
f 26/28/14 14/15/14 16/17/14 
f 26/28/14 16/19/14 17/18/14 
f 26/28/14 17/18/14 18/20/14 
f 26/28/14 18/20/14 19/21/14 
f 26/28/14 19/21/14 20/22/14 
f 26/28/14 20/22/14 21/23/14 
f 26/28/14 21/23/14 22/24/14 
f 26/28/14 22/24/14 23/25/14 
f 26/28/14 23/25/14 24/26/14 
f 26/28/14 24/26/14 25/27/14 
f 26/28/14 25/27/14 15/16/14 
# 48 faces

