# 3ds Max Wavefront OBJ Exporter v0.99 - (c)2007 guruware
# File Created: 05.12.2023 20:29:05

#
# object Pyramid001
#

v  0.0000 1.0000 -0.0000
v  -0.5000 0.0000 0.5000
v  0.5000 0.0000 0.5000
v  0.5000 0.0000 -0.5000
v  -0.5000 0.0000 -0.5000
v  0.0000 0.0000 -0.0000
# 6 vertices

vn 0.0000 0.4472 0.8944
vn 0.8944 0.4472 -0.0000
vn 0.0000 0.4472 -0.8944
vn -0.8944 0.4472 -0.0000
vn 0.0000 -1.0000 -0.0000
# 5 vertex normals

vt 0.5105 0.6801 0.0000
vt 0.3409 0.3409 0.0000
vt 0.6801 0.3409 0.0000
vt 0.1706 0.3402 0.0000
vt 0.0010 0.0010 0.0000
vt 0.3402 0.0010 0.0000
vt 0.1706 0.6801 0.0000
vt 0.0010 0.3409 0.0000
vt 0.3402 0.3409 0.0000
vt 0.5105 0.3402 0.0000
vt 0.3409 0.0010 0.0000
vt 0.6801 0.0010 0.0000
vt 0.0010 0.9990 0.0000
vt 0.1601 0.8399 0.0000
vt 0.3192 0.9990 0.0000
vt 0.3192 0.6808 0.0000
vt 0.0010 0.6808 0.0000
# 17 texture coords

o Pyramid001
g Pyramid001
s 4
f 1/1/1 2/2/1 3/3/1 
s 2
f 1/4/2 3/5/2 4/6/2 
s 16
f 1/7/3 4/8/3 5/9/3 
s 32
f 1/10/4 5/11/4 2/12/4 
s 8
f 2/13/5 6/14/5 3/15/5 
f 3/15/5 6/14/5 4/16/5 
f 4/16/5 6/14/5 5/17/5 
f 5/17/5 6/14/5 2/13/5 
# 8 faces

